<svg xmlns="http://www.w3.org/2000/svg" width="25.446" height="23.588" viewBox="0 0 25.446 23.588">
  <g id="Groupe_213" data-name="Groupe 213" transform="translate(0.022)">
    <rect id="Rectangle_203" data-name="Rectangle 203" width="25.322" height="20.447" rx="2.65" transform="translate(0.04 2.621)" fill="#fff"/>
    <path id="Tracé_181" data-name="Tracé 181" d="M20.26,6.42a1,1,0,0,0,.234.028h.243a.941.941,0,0,0,.234-.028Z" transform="translate(-1.327 -0.661)" fill="#fff"/>
    <path id="Tracé_181_-_Contour" data-name="Tracé 181 - Contour" d="M17.986,6.14h5.258l-2.206.552a1.227,1.227,0,0,1-.3.036h-.243a1.28,1.28,0,0,1-.3-.036Z" transform="translate(-1.327 -0.661)" fill="#1d1d1b"/>
    <path id="Tracé_182" data-name="Tracé 182" d="M23.094,3.18h-2.57V5.671a.5.5,0,0,1-.5.5h-.355a1.01,1.01,0,0,1-.234.028h-.243a.953.953,0,0,1-.234-.028h-.346a.5.5,0,0,1-.5-.5V3.18H13.927V5.7a.5.5,0,0,1-.5.5H12.012a.5.5,0,0,1-.5-.5V3.18H7.2V5.7a.5.5,0,0,1-.5.5H5.284a.5.5,0,0,1-.5-.5V3.18H2.332A1.96,1.96,0,0,0,.36,5.127v16.7a1.96,1.96,0,0,0,1.972,1.947H23.084a1.96,1.96,0,0,0,1.972-1.947V5.127A1.96,1.96,0,0,0,23.084,3.18Zm.635,17.953a1.71,1.71,0,0,1-1.719,1.7H3.425a1.7,1.7,0,0,1-1.719-1.7V9.942H23.738V21.133Z" transform="translate(-0.007 -0.559)" fill="#706f6f"/>
    <path id="Tracé_182_-_Contour" data-name="Tracé 182 - Contour" d="M2.332,2.805H5.155V5.7a.125.125,0,0,0,.13.123H6.7a.125.125,0,0,0,.13-.123V2.805h5.058V5.7a.125.125,0,0,0,.13.123h1.411a.125.125,0,0,0,.13-.123V2.805h4.927V5.671a.125.125,0,0,0,.13.123H19l.044.011a.576.576,0,0,0,.144.017h.243a.636.636,0,0,0,.144-.017l.044-.011h.4a.125.125,0,0,0,.13-.123V2.805h2.945a2.337,2.337,0,0,1,2.337,2.322v16.7a2.337,2.337,0,0,1-2.347,2.322H2.332A2.337,2.337,0,0,1-.015,21.825V5.127A2.337,2.337,0,0,1,2.332,2.805Zm2.073.75H2.332a1.586,1.586,0,0,0-1.6,1.572v16.7a1.586,1.586,0,0,0,1.6,1.572H23.084a1.586,1.586,0,0,0,1.6-1.572V5.127a1.586,1.586,0,0,0-1.6-1.572H20.9V5.671a.877.877,0,0,1-.88.873h-.314a1.407,1.407,0,0,1-.275.028h-.243a1.341,1.341,0,0,1-.275-.028h-.3a.877.877,0,0,1-.88-.873V3.555H14.3V5.7a.877.877,0,0,1-.88.873H12.012a.877.877,0,0,1-.88-.873V3.555H7.575V5.7a.877.877,0,0,1-.88.873H5.284A.877.877,0,0,1,4.4,5.7ZM1.331,9.567H24.113V21.508H24.07a2.092,2.092,0,0,1-2.06,1.7H3.425a2.086,2.086,0,0,1-2.094-2.072Zm22.033.75H2.081V21.133a1.335,1.335,0,0,0,1.344,1.322H22.01a1.335,1.335,0,0,0,1.344-1.322v-.375h.009Z" transform="translate(-0.007 -0.559)" fill="#1d1d1b"/>
    <path id="Tracé_183" data-name="Tracé 183" d="M13.383.5h.234A1.089,1.089,0,0,1,14.71,1.593V4.966A1.1,1.1,0,0,1,13.617,6.06h-.234A1.089,1.089,0,0,1,12.29,4.966V1.593A1.1,1.1,0,0,1,13.383.5Z" transform="translate(-0.804)" fill="#fff"/>
    <path id="Tracé_183_-_Contour" data-name="Tracé 183 - Contour" d="M13.383,0h.234A1.6,1.6,0,0,1,15.21,1.593V4.966A1.6,1.6,0,0,1,13.617,6.56h-.234A1.6,1.6,0,0,1,11.79,4.966V1.593A1.6,1.6,0,0,1,13.383,0Zm.234,5.56a.594.594,0,0,0,.593-.593V1.593A.587.587,0,0,0,13.617,1h-.234a.594.594,0,0,0-.593.593V4.966a.587.587,0,0,0,.593.593Z" transform="translate(-0.804)" fill="#1d1d1b"/>
    <path id="Tracé_184" data-name="Tracé 184" d="M6.183.5h.234A1.089,1.089,0,0,1,7.51,1.593V4.966A1.1,1.1,0,0,1,6.417,6.06H6.183A1.089,1.089,0,0,1,5.09,4.966V1.593A1.1,1.1,0,0,1,6.183.5Z" transform="translate(-0.331)" fill="#fff"/>
    <path id="Tracé_184_-_Contour" data-name="Tracé 184 - Contour" d="M6.183,0h.234A1.6,1.6,0,0,1,8.01,1.593V4.966A1.6,1.6,0,0,1,6.417,6.56H6.183A1.6,1.6,0,0,1,4.59,4.966V1.593A1.6,1.6,0,0,1,6.183,0Zm.234,5.56a.594.594,0,0,0,.593-.593V1.593A.587.587,0,0,0,6.417,1H6.183a.594.594,0,0,0-.593.593V4.966a.587.587,0,0,0,.593.593Z" transform="translate(-0.331)" fill="#1d1d1b"/>
    <path id="Tracé_185" data-name="Tracé 185" d="M21.769,1.593V4.966a1.093,1.093,0,0,1-.86,1.065,1,1,0,0,1-.234.028h-.243a.941.941,0,0,1-.234-.028,1.093,1.093,0,0,1-.86-1.065V1.593A1.089,1.089,0,0,1,20.433.5h.243A1.089,1.089,0,0,1,21.769,1.593Z" transform="translate(-1.266)" fill="#fff"/>
    <path id="Tracé_185_-_Contour" data-name="Tracé 185 - Contour" d="M20.433,0h.243a1.6,1.6,0,0,1,1.593,1.593V4.966a1.594,1.594,0,0,1-1.248,1.553,1.511,1.511,0,0,1-.346.041h-.243a1.445,1.445,0,0,1-.346-.041A1.594,1.594,0,0,1,18.84,4.966V1.593A1.6,1.6,0,0,1,20.433,0Zm.243,5.56a.5.5,0,0,0,.112-.013l.018,0a.59.59,0,0,0,.463-.576V1.593A.587.587,0,0,0,20.676,1h-.243a.587.587,0,0,0-.593.593V4.966a.59.59,0,0,0,.463.576l.018,0a.445.445,0,0,0,.112.013Z" transform="translate(-1.266)" fill="#1d1d1b"/>
    <rect id="Rectangle_204" data-name="Rectangle 204" width="2.373" height="2.607" rx="0.78" transform="translate(18.989 11.394)" fill="#1d1d1b"/>
    <path id="Rectangle_204_-_Contour" data-name="Rectangle 204 - Contour" d="M.78-.25h.813A1.031,1.031,0,0,1,2.623.78V1.827a1.031,1.031,0,0,1-1.03,1.03H.78A1.031,1.031,0,0,1-.25,1.827V.78A1.031,1.031,0,0,1,.78-.25Zm.813,2.607a.531.531,0,0,0,.53-.53V.78a.531.531,0,0,0-.53-.53H.78A.531.531,0,0,0,.25.78V1.827a.531.531,0,0,0,.53.53Z" transform="translate(18.989 11.394)" fill="#1d1d1b"/>
    <rect id="Rectangle_205" data-name="Rectangle 205" width="2.373" height="2.607" rx="0.78" transform="translate(13.878 11.394)" fill="#1d1d1b"/>
    <path id="Rectangle_205_-_Contour" data-name="Rectangle 205 - Contour" d="M.78-.25h.813A1.031,1.031,0,0,1,2.623.78V1.827a1.031,1.031,0,0,1-1.03,1.03H.78A1.031,1.031,0,0,1-.25,1.827V.78A1.031,1.031,0,0,1,.78-.25Zm.813,2.607a.531.531,0,0,0,.53-.53V.78a.531.531,0,0,0-.53-.53H.78A.531.531,0,0,0,.25.78V1.827a.531.531,0,0,0,.53.53Z" transform="translate(13.878 11.394)" fill="#1d1d1b"/>
    <rect id="Rectangle_206" data-name="Rectangle 206" width="2.373" height="2.607" rx="0.78" transform="translate(8.776 11.394)" fill="#1d1d1b"/>
    <path id="Rectangle_206_-_Contour" data-name="Rectangle 206 - Contour" d="M.78-.25h.813A1.031,1.031,0,0,1,2.623.78V1.827a1.031,1.031,0,0,1-1.03,1.03H.78A1.031,1.031,0,0,1-.25,1.827V.78A1.031,1.031,0,0,1,.78-.25Zm.813,2.607a.531.531,0,0,0,.53-.53V.78a.531.531,0,0,0-.53-.53H.78A.531.531,0,0,0,.25.78V1.827a.531.531,0,0,0,.53.53Z" transform="translate(8.776 11.394)" fill="#1d1d1b"/>
    <path id="Rectangle_207" data-name="Rectangle 207" d="M.78-.25h.813A1.031,1.031,0,0,1,2.623.78V1.827a1.031,1.031,0,0,1-1.03,1.03H.78A1.031,1.031,0,0,1-.25,1.827V.78A1.031,1.031,0,0,1,.78-.25Zm.813,2.607a.531.531,0,0,0,.53-.53V.78a.531.531,0,0,0-.53-.53H.78A.531.531,0,0,0,.25.78V1.827a.531.531,0,0,0,.53.53Z" transform="translate(8.776 16.373)" fill="#1d1d1b"/>
    <rect id="Rectangle_208" data-name="Rectangle 208" width="2.373" height="2.607" rx="0.78" transform="translate(3.6 11.394)" fill="#1d1d1b"/>
    <path id="Rectangle_208_-_Contour" data-name="Rectangle 208 - Contour" d="M.78-.25h.813A1.031,1.031,0,0,1,2.623.78V1.827a1.031,1.031,0,0,1-1.03,1.03H.78A1.031,1.031,0,0,1-.25,1.827V.78A1.031,1.031,0,0,1,.78-.25Zm.813,2.607a.531.531,0,0,0,.53-.53V.78a.531.531,0,0,0-.53-.53H.78A.531.531,0,0,0,.25.78V1.827a.531.531,0,0,0,.53.53Z" transform="translate(3.6 11.394)" fill="#1d1d1b"/>
    <rect id="Rectangle_209" data-name="Rectangle 209" width="2.373" height="2.607" rx="0.78" transform="translate(3.6 16.373)" fill="#1d1d1b"/>
    <path id="Rectangle_209_-_Contour" data-name="Rectangle 209 - Contour" d="M.78-.25h.813A1.031,1.031,0,0,1,2.623.78V1.827a1.031,1.031,0,0,1-1.03,1.03H.78A1.031,1.031,0,0,1-.25,1.827V.78A1.031,1.031,0,0,1,.78-.25Zm.813,2.607a.531.531,0,0,0,.53-.53V.78a.531.531,0,0,0-.53-.53H.78A.531.531,0,0,0,.25.78V1.827a.531.531,0,0,0,.53.53Z" transform="translate(3.6 16.373)" fill="#1d1d1b"/>
  </g>
</svg>
