<svg xmlns="http://www.w3.org/2000/svg" xmlns:xlink="http://www.w3.org/1999/xlink" width="98" height="446" viewBox="0 0 98 446"><defs><clipPath id="a"><rect width="98" height="446" transform="translate(262 901)" fill="#fff" stroke="#707070" stroke-width="1"/></clipPath></defs><g transform="translate(-262 -901)" clip-path="url(#a)"><g transform="translate(246.463 900.948)"><g transform="translate(0 336.051)"><g transform="translate(90.043 22.918)" fill="#ffa44f" opacity="0.75"><path d="M 53.42428588867188 56.1962890625 L 4.493052959442139 36.43560028076172 L 0.5047875046730042 0.01636042445898056 L 4.297002792358398 -21.55706787109375 L 53.42428588867188 56.1962890625 Z" stroke="none"/><path d="M 4.565448760986328 -20.19614791870117 L 1.009567260742188 0.03279495239257812 L 4.957523345947266 36.08394241333008 L 52.17281723022461 55.15165328979492 L 4.565448760986328 -20.19614791870117 M 4.028568267822266 -22.91799926757812 L 54.67578125 57.24093627929688 L 4.028568267822266 36.78725814819336 L 0 0 L 4.028568267822266 -22.91799926757812 Z" stroke="none" fill="#707070"/></g><g transform="translate(62.705 62.997)" fill="#ffa44f" opacity="0.75"><path d="M 53.42428588867188 56.1962890625 L 4.493052959442139 36.43560028076172 L 0.5047875046730042 0.01636042445898056 L 4.297002792358398 -21.55706787109375 L 53.42428588867188 56.1962890625 Z" stroke="none"/><path d="M 4.565448760986328 -20.19614791870117 L 1.009567260742188 0.03279495239257812 L 4.957523345947266 36.08394241333008 L 52.17281723022461 55.15165328979492 L 4.565448760986328 -20.19614791870117 M 4.028568267822266 -22.91799926757812 L 54.67578125 57.24093627929688 L 4.028568267822266 36.78725814819336 L 0 0 L 4.028568267822266 -22.91799926757812 Z" stroke="none" fill="#707070"/></g><g transform="matrix(-0.391, -0.921, 0.921, -0.391, 80.239, 143.495)" fill="#272838" opacity="0.75"><path d="M 25.59195137023926 82.69957733154297 L 0.6048679947853088 39.41484069824219 L 31.5556697845459 1.212151169776917 L 39.89458847045898 62.0589599609375 L 25.59195137023926 82.69957733154297 Z" stroke="none"/><path d="M 31.21709823608398 2.424308776855469 L 1.209716796875 39.46252822875977 L 25.63044357299805 81.76615142822266 L 39.37278366088867 61.93410491943359 L 31.21709823608398 2.424308776855469 M 31.89420509338379 0 L 40.41636276245117 62.18383026123047 L 25.5534610748291 83.63299560546875 L -3.814697265625e-06 39.36714172363281 L 31.89420509338379 0 Z" stroke="none" fill="#707070"/></g><g transform="matrix(-0.891, -0.454, 0.454, -0.891, 81.856, 126.592)" fill="#272838" opacity="0.75"><path d="M 25.59195137023926 82.69957733154297 L 0.6048679947853088 39.41484069824219 L 31.5556697845459 1.212151169776917 L 39.89458847045898 62.0589599609375 L 25.59195137023926 82.69957733154297 Z" stroke="none"/><path d="M 31.21709823608398 2.424308776855469 L 1.209716796875 39.46252822875977 L 25.63044357299805 81.76615142822266 L 39.37278366088867 61.93410491943359 L 31.21709823608398 2.424308776855469 M 31.89420509338379 0 L 40.41636276245117 62.18383026123047 L 25.5534610748291 83.63299560546875 L -3.814697265625e-06 39.36714172363281 L 31.89420509338379 0 Z" stroke="none" fill="#707070"/></g><g transform="matrix(-0.574, -0.819, 0.819, -0.574, 23.182, 144.697)" fill="#272838" opacity="0.75"><path d="M 25.59195137023926 82.69957733154297 L 0.6048679947853088 39.41484069824219 L 31.5556697845459 1.212151169776917 L 39.89458847045898 62.0589599609375 L 25.59195137023926 82.69957733154297 Z" stroke="none"/><path d="M 31.21709823608398 2.424308776855469 L 1.209716796875 39.46252822875977 L 25.63044357299805 81.76615142822266 L 39.37278366088867 61.93410491943359 L 31.21709823608398 2.424308776855469 M 31.89420509338379 0 L 40.41636276245117 62.18383026123047 L 25.5534610748291 83.63299560546875 L -3.814697265625e-06 39.36714172363281 L 31.89420509338379 0 Z" stroke="none" fill="#707070"/></g><g transform="matrix(0.695, 0.719, -0.719, 0.695, 124.198, 29.687)" fill="#d5ffff" opacity="0.75"><path d="M 53.42428588867188 79.11428833007812 L 4.493052959442139 59.35359954833984 L 0.5047875046730042 22.93436050415039 L 4.297002792358398 1.360931873321533 L 53.42428588867188 79.11428833007812 Z" stroke="none"/><path d="M 4.565448760986328 2.721855163574219 L 1.009567260742188 22.9507942199707 L 4.957523345947266 59.00193786621094 L 52.17281723022461 78.06964874267578 L 4.565448760986328 2.721855163574219 M 4.028568267822266 0 L 54.67578125 80.158935546875 L 4.028568267822266 59.70525741577148 L 0 22.91799926757812 L 4.028568267822266 0 Z" stroke="none" fill="#707070"/></g><g transform="translate(92.278 25.118) rotate(59)" fill="#d5ffff" opacity="0.75"><path d="M 53.42428588867188 79.11428833007812 L 4.493052959442139 59.35359954833984 L 0.5047875046730042 22.93436050415039 L 4.297002792358398 1.360931873321533 L 53.42428588867188 79.11428833007812 Z" stroke="none"/><path d="M 4.565448760986328 2.721855163574219 L 1.009567260742188 22.9507942199707 L 4.957523345947266 59.00193786621094 L 52.17281723022461 78.06964874267578 L 4.565448760986328 2.721855163574219 M 4.028568267822266 0 L 54.67578125 80.158935546875 L 4.028568267822266 59.70525741577148 L 0 22.91799926757812 L 4.028568267822266 0 Z" stroke="none" fill="#707070"/></g></g><g transform="translate(45.089 242.797) rotate(-8)"><g transform="translate(31.501 22.918)" fill="#ffa44f" opacity="0.75"><path d="M 53.42428588867188 56.1962890625 L 4.493052959442139 36.43560028076172 L 0.5047875046730042 0.01636042445898056 L 4.297002792358398 -21.55706787109375 L 53.42428588867188 56.1962890625 Z" stroke="none"/><path d="M 4.565448760986328 -20.19614791870117 L 1.009567260742188 0.03279495239257812 L 4.957523345947266 36.08394241333008 L 52.17281723022461 55.15165328979492 L 4.565448760986328 -20.19614791870117 M 4.028568267822266 -22.91799926757812 L 54.67578125 57.24093627929688 L 4.028568267822266 36.78725814819336 L 0 0 L 4.028568267822266 -22.91799926757812 Z" stroke="none" fill="#707070"/></g><g transform="translate(0 97.739) rotate(-47)" fill="#272838" opacity="0.75"><path d="M 25.59195137023926 82.69957733154297 L 0.6048679947853088 39.41484069824219 L 31.5556697845459 1.212151169776917 L 39.89458847045898 62.0589599609375 L 25.59195137023926 82.69957733154297 Z" stroke="none"/><path d="M 31.21709823608398 2.424308776855469 L 1.209716796875 39.46252822875977 L 25.63044357299805 81.76615142822266 L 39.37278366088867 61.93410491943359 L 31.21709823608398 2.424308776855469 M 31.89420509338379 0 L 40.41636276245117 62.18383026123047 L 25.5534610748291 83.63299560546875 L -3.814697265625e-06 39.36714172363281 L 31.89420509338379 0 Z" stroke="none" fill="#707070"/></g><g transform="matrix(0.695, 0.719, -0.719, 0.695, 65.657, 29.687)" fill="#d5ffff" opacity="0.75"><path d="M 53.42428588867188 79.11428833007812 L 4.493052959442139 59.35359954833984 L 0.5047875046730042 22.93436050415039 L 4.297002792358398 1.360931873321533 L 53.42428588867188 79.11428833007812 Z" stroke="none"/><path d="M 4.565448760986328 2.721855163574219 L 1.009567260742188 22.9507942199707 L 4.957523345947266 59.00193786621094 L 52.17281723022461 78.06964874267578 L 4.565448760986328 2.721855163574219 M 4.028568267822266 0 L 54.67578125 80.158935546875 L 4.028568267822266 59.70525741577148 L 0 22.91799926757812 L 4.028568267822266 0 Z" stroke="none" fill="#707070"/></g></g><g transform="translate(63.804 6.619) rotate(-6)"><g transform="translate(34.528 22.918)" fill="#ffa44f" opacity="0.75"><path d="M 25.57187652587891 15.36248588562012 L 2.440851449966431 6.021120548248291 L 0.5047853589057922 -11.65827941894531 L 2.24480938911438 -21.55706596374512 L 25.57187652587891 15.36248588562012 Z" stroke="none"/><path d="M 2.513250350952148 -20.19613838195801 L 1.009571075439453 -11.64188575744629 L 2.905332565307617 5.669466972351074 L 24.32039833068848 14.31785011291504 L 2.513250350952148 -20.19613838195801 M 1.976369857788086 -22.91799545288086 L 26.82336044311523 16.40712356567383 L 1.976369857788086 6.372774124145508 L 0 -11.6746654510498 L 1.976369857788086 -22.91799545288086 Z" stroke="none" fill="#707070"/></g><g transform="matrix(-0.391, -0.921, 0.921, -0.391, 63.424, 91.701)" fill="#272838" opacity="0.75"><path d="M -9.868128776550293 -10.62399864196777 L -21.96074485778809 -31.57184028625488 L -7.104009628295898 -49.90954971313477 L -3.065435647964478 -20.44119262695312 L -9.868128776550293 -10.62399864196777 Z" stroke="none"/><path d="M -7.442560195922852 -48.69740676879883 L -21.35588455200195 -31.52414321899414 L -9.829636573791504 -11.55741119384766 L -3.587221145629883 -20.56605911254883 L -7.442560195922852 -48.69740676879883 M -6.765459060668945 -51.12171173095703 L -2.543647766113281 -20.31632995605469 L -9.906618118286133 -9.690570831298828 L -22.56560897827148 -31.61953163146973 L -6.765459060668945 -51.12171173095703 Z" stroke="none" fill="#707070"/></g><g transform="matrix(0.695, 0.719, -0.719, 0.695, 16.385, 59.204)" fill="#d5ffff" opacity="0.75"><path d="M 25.80123329162598 15.69874000549316 L 2.457747936248779 6.271565914154053 L 0.5047818422317505 -11.56214427947998 L 2.261705875396729 -21.55706977844238 L 25.80123329162598 15.69874000549316 Z" stroke="none"/><path d="M 2.530147552490234 -20.19614410400391 L 1.009567260742188 -11.54575347900391 L 2.922229766845703 5.919910430908203 L 24.54975509643555 14.65410232543945 L 2.530147552490234 -20.19614410400391 M 1.993267059326172 -22.91800308227539 L 27.0527172088623 16.74337768554688 L 1.993267059326172 6.623217582702637 L -3.814697265625e-06 -11.57853317260742 L 1.993267059326172 -22.91800308227539 Z" stroke="none" fill="#707070"/></g><g transform="matrix(0.982, 0.191, -0.191, 0.982, 4.192, 203.515)" fill="#d5ffff" opacity="0.75"><path d="M 29.36439323425293 20.92260360717773 L 2.720287799835205 10.16249847412109 L 0.5047818422317505 -10.06861114501953 L 2.524245500564575 -21.55706787109375 L 29.36439323425293 20.92260360717773 Z" stroke="none"/><path d="M 2.792686462402344 -20.19614219665527 L 1.009567260742188 -10.05221748352051 L 3.184768676757812 9.810845375061035 L 28.1129150390625 19.87796783447266 L 2.792686462402344 -20.19614219665527 M 2.255805969238281 -22.91799736022949 L 30.61587715148926 21.96724128723145 L 2.255805969238281 10.51415157318115 L -3.814697265625e-06 -10.08499813079834 L 2.255805969238281 -22.91799736022949 Z" stroke="none" fill="#707070"/></g></g></g></g></svg>